#!OML:ASF F:\VICON\USERDATA\INSTALL\rory3\rory3.ASF
:FULLY-SPECIFIED
:DEGREES
397
root 0.347792 17.662 8.32481 -2.66832 12.9058 5.50449
lowerback 11.6512 2.30555 0.102467
upperback 1.06037 3.06999 -0.180428
thorax -5.40166 1.50869 -0.740182
lowerneck -17.4086 2.94157 -8.51896
upperneck 41.4343 6.99649 3.39458
head 17.9265 2.09513 4.52075
rclavicle 4.7758e-014 3.18055e-015
rhumerus -34.8024 -16.8283 -68.2494
rradius 34.8871
rwrist 3.43553
rhand -17.7385 7.74857
rfingers 7.12502
rthumb 8.52275 -22.0594
lclavicle 4.7758e-014 3.18055e-015
lhumerus -36.4069 19.1585 77.3149
lradius 26.0054
lwrist -9.27112
lhand -22.1944 23.6655
lfingers 7.12502
lthumb 4.22106 53.6034
rfemur 0.785007 7.48019 0.0301498
rtibia 31.0807
rfoot -6.12132 -12.0141
rtoes -6.8971
lfemur -1.32295 -6.82217 -13.3644
ltibia 14.5109
lfoot -5.38511 -5.69171
ltoes -20.1497
398
root 0.48208 17.6807 8.30667 -2.54132 12.9361 5.60351
lowerback 11.7105 2.29728 0.159074
upperback 1.03198 3.06621 -0.181894
thorax -5.46153 1.50493 -0.776354
lowerneck -17.4819 2.91369 -8.63287
upperneck 41.5282 6.98339 3.46772
head 17.9926 2.07605 4.58265
rclavicle 1.90336e-014 0
rhumerus -34.9853 -17.7117 -67.9126
rradius 35.0186
rwrist 3.82721
rhand -17.4809 7.62805
rfingers 7.12502
rthumb 8.77129 -22.1697
lclavicle 1.90336e-014 0
lhumerus -36.0121 18.272 77.9034
lradius 26.0656
lwrist -9.08587
lhand -21.8918 24.0373
lfingers 7.12502
lthumb 4.51327 53.9692
rfemur 0.438963 7.97564 -0.264687
rtibia 31.4014
rfoot -5.08253 -12.743
rtoes -3.55784
lfemur -1.39714 -6.53145 -13.9839
ltibia 14.4266
lfoot -5.58228 -5.75165
ltoes -19.5716
399
root 0.615808 17.6989 8.29355 -2.3893 12.8778 5.74447
lowerback 11.6323 2.3214 0.11896
upperback 1.06945 3.09516 -0.143354
thorax -5.38255 1.52122 -0.713612
lowerneck -17.7069 2.87343 -8.83838
upperneck 41.7289 7.02816 3.51552
head 18.157 2.05179 4.6749
rclavicle 6.11263e-015 1.11319e-014
rhumerus -35.0676 -18.4649 -67.6076
rradius 35.1263
rwrist 4.09659
rhand -17.3128 7.93371
rfingers 7.12502
rthumb 8.93352 -21.8572
lclavicle 6.11263e-015 1.11319e-014
lhumerus -35.6281 17.6521 78.432
lradius 26.2018
lwrist -9.4234
lhand -21.192 24.0453
lfingers 7.12502
lthumb 5.189 53.9618
rfemur 0.0255369 8.49726 -0.578365
rtibia 31.7667
rfoot -4.09632 -13.4407
rtoes -0.333111
lfemur -1.36962 -6.23113 -14.6207
ltibia 14.319
lfoot -5.75589 -5.85789
ltoes -18.7399
400
root 0.747225 17.717 8.27735 -2.22019 12.7175 5.90421
lowerback 11.54 2.37055 0.00597301
upperback 1.09417 3.14874 -0.0925844
thorax -5.31364 1.55118 -0.600885
lowerneck -17.8035 2.84095 -8.97616
upperneck 41.8167 7.07573 3.46212
head 18.2314 2.03354 4.69403
rclavicle -2.43014e-014 1.51076e-014
rhumerus -35.1242 -18.7952 -67.4342
rradius 35.2396
rwrist 4.03661
rhand -17.316 8.18619
rfingers 7.12502
rthumb 8.93039 -21.6048
lclavicle -2.43014e-014 1.51076e-014
lhumerus -35.336 17.0757 78.9044
lradius 26.397
lwrist -9.97348
lhand -20.7013 23.9686
lfingers 7.12502
lthumb 5.66274 53.8729
rfemur -0.488672 8.99264 -0.903682
rtibia 32.1762
rfoot -3.00683 -13.9717
rtoes 3.50831
lfemur -1.27365 -6.00058 -15.2497
ltibia 14.1895
lfoot -5.89708 -5.89698
ltoes -18.2841
401
root 0.870177 17.7354 8.25923 -2.09659 12.5961 5.91751
lowerback 11.5175 2.42781 -0.0102757
upperback 1.06629 3.22594 -0.0331175
thorax -5.33431 1.58992 -0.541765
lowerneck -17.4471 2.75399 -9.03652
upperneck 41.4938 6.91925 3.37783
head 17.9648 1.97669 4.59561
rclavicle -1.6201e-014 3.97569e-015
rhumerus -35.3221 -18.88 -67.3773
rradius 35.4865
rwrist 3.85076
rhand -17.2066 8.04457
rfingers 7.12502
rthumb 9.03602 -21.7419
lclavicle -1.6201e-014 3.97569e-015
lhumerus -35.0849 15.998 79.4824
lradius 26.6663
lwrist -9.75064
lhand -20.7537 24.3157
lfingers 7.12502
lthumb 5.61219 54.2214
rfemur -1.01548 9.56625 -0.963382
rtibia 32.6469
rfoot -1.92011 -14.7474
rtoes 9.19646
lfemur -1.17095 -5.78998 -15.6786
ltibia 13.9688
lfoot -6.03855 -6.03709
ltoes -19.5542
402
root 0.985657 17.7509 8.23928 -2.03908 12.5081 5.71944
lowerback 11.6332 2.45953 0.179907
upperback 0.991103 3.29734 0.0524132
thorax -5.47187 1.6203 -0.578134
lowerneck -17.0575 2.65527 -9.02118
upperneck 41.0591 6.74953 3.18161
head 17.642 1.9155 4.42339
rclavicle -1.8487e-014 -1.19271e-014
rhumerus -35.5548 -18.8773 -67.4143
rradius 35.7065
rwrist 3.67102
rhand -17.1364 8.00285
rfingers 7.12502
rthumb 9.10372 -21.7807
lclavicle -1.8487e-014 -1.19271e-014
lhumerus -34.8586 14.93 80.0064
lradius 26.9509
lwrist -9.33471
lhand -20.9809 24.5696
lfingers 7.12502
lthumb 5.39275 54.481
rfemur -1.55332 10.2619 -0.685696
rtibia 33.158
rfoot -1.00624 -15.8261
rtoes 15.5989
lfemur -1.11864 -5.58469 -15.8454
ltibia 13.6882
lfoot -6.22557 -6.21811
ltoes -19.7835
